Coordinates
version=1
nRows=5
nColumns=46
inDegrees=yes

Units are S.I. units (second, meters, Newtons, ...)
Angles are in degrees.

endheader
time	pelvis_tilt	pelvis_list	pelvis_rotation	pelvis_tx	pelvis_ty	pelvis_tz	bb_angle	bb_tx	bb_ty	bb_tz	hip_flexion_r	hip_adduction_r	hip_rotation_r	knee_angle_r	knee_angle_r_beta	ankle_angle_r	subtalar_angle_r	mtp_angle_r	crank_angle_r	hip_flexion_l	hip_adduction_l	hip_rotation_l	knee_angle_l	knee_angle_l_beta	ankle_angle_l	subtalar_angle_l	mtp_angle_l	crank_angle_l	lumbar_extension	lumbar_bending	lumbar_rotation	arm_flex_r	arm_add_r	arm_rot_r	elbow_flex_r	pro_sup_r	wrist_flex_r	wrist_dev_r	arm_flex_l	arm_add_l	arm_rot_l	elbow_flex_l	pro_sup_l	wrist_flex_l	wrist_dev_l
      7.50000000	    -23.46409787	    -14.11731794	     -4.20385501	      0.39574902	      1.07734098	     -0.23536029	      0.00000000	      0.50000000	      0.00000000	      0.25000000	     62.30922565	      9.48691362	     -3.15113216	    107.98291920	      1.88465748	     11.18362309	      1.01421411	      0.00000000	      0.00000000	     36.92305551	    -19.69186453	      2.63842357	     28.90305320	      0.50445344	    -13.99384613	     -6.14523140	      0.00000000	      0.00000000	    -43.19308986	      7.88536683	      6.09172350	     62.80245365	      4.05379827	     23.35945740	     22.97392741	     46.16400762	      0.00000000	      0.00000000	     47.60768508	    -17.54742059	     17.41008075	     53.80145588	     47.35849814	      0.00000000	      0.00000000
      7.50500000	    -23.71801019	    -14.32709195	     -5.17726170	      0.39509970	      1.07704168	     -0.23671597	      0.00000000	      0.50000000	      0.00000000	      0.25000000	     63.98260128	      9.71632959	     -3.19161947	    108.99065401	      1.90224577	     11.64164786	      1.54562228	      0.00000000	      0.00000000	     35.70570511	    -20.35996888	      1.64480045	     27.70038350	      0.48346290	    -15.14247247	     -5.82013970	      0.00000000	      0.00000000	    -43.10824379	      8.34955802	      6.63432972	     63.00306963	      4.19936911	     23.30423264	     23.44452290	     46.21663994	      0.00000000	      0.00000000	     47.17387607	    -17.59323737	     16.95236748	     53.42249883	     47.25893453	      0.00000000	      0.00000000
      7.51000000	    -23.87168982	    -14.16458739	     -6.28685442	      0.39469435	      1.07699160	     -0.23780176	      0.00000000	      0.50000000	      0.00000000	      0.25000000	     65.53404514	      9.93640157	     -2.72673732	    109.92539618	      1.91856009	     12.22975318	      2.48737811	      0.00000000	      0.00000000	     34.24965114	    -20.76977216	      0.07943122	     26.58743098	      0.46403821	    -16.21110065	     -5.65211121	      0.00000000	      0.00000000	    -43.10978372	      8.25953081	      7.22688154	     62.11394959	      3.95956690	     22.38356622	     25.85060775	     46.39314083	      0.00000000	      0.00000000	     46.81266391	    -16.17722572	     13.57965460	     52.68258817	     46.87819623	      0.00000000	      0.00000000
      7.51500000	    -24.06634972	    -14.25322325	     -7.10008656	      0.39399993	      1.07659319	     -0.23924166	      0.00000000	      0.50000000	      0.00000000	      0.25000000	     67.13972787	      9.98112575	     -2.76762894	    110.67677669	      1.93167416	     12.53313262	      2.95458114	      0.00000000	      0.00000000	     33.14229503	    -21.23627636	     -0.94608381	     25.80404523	      0.45036555	    -16.97060596	     -5.14560963	      0.00000000	      0.00000000	    -43.05599979	      8.71658478	      7.58597892	     62.39363679	      4.11732226	     22.40145127	     26.11096611	     46.42910048	      0.00000000	      0.00000000	     46.33690259	    -16.28855733	     13.42707575	     52.39304663	     46.82903849	      0.00000000	      0.00000000
      7.52000000	    -24.05768919	    -14.00434384	     -8.14273525	      0.39353312	      1.07654883	     -0.24017359	      0.00000000	      0.50000000	      0.00000000	      0.25000000	     68.50283546	     10.16830019	     -2.30267114	    111.37586519	      1.94387555	     13.07528432	      4.05464642	      0.00000000	      0.00000000	     31.62694038	    -21.54796224	     -2.62228550	     25.09291791	      0.43795404	    -17.33984182	     -4.21543271	      0.00000000	      0.00000000	    -43.15363048	      8.56488557	      7.80471929	     62.40067252	      4.44600447	     22.50626067	     26.44476537	     46.48867717	      0.00000000	      0.00000000	     45.89344764	    -16.24059471	     12.47498591	     52.06259177	     46.71406333	      0.00000000	      0.00000000
